<svg xmlns="http://www.w3.org/2000/svg" width="31.027" height="30.915" viewBox="0 0 31.027 30.915">
  <path id="Path_231" data-name="Path 231" d="M259.446,491.96l2.025-2.025a2.3,2.3,0,0,1,3.245,0l4.094,4.094a2.3,2.3,0,0,1,0,3.245l-.146.146s-1.98,2.112-2.924,2.883c-.97.792-2.647,1.042-4.931.455a30.706,30.706,0,0,1-14.3-9.4c-4.235-5.039-5.663-8.768-6.183-11.179-.762-3.536.525-4.749,1.6-5.8.512-.5,2.025-2.025,2.025-2.025a2.3,2.3,0,0,1,3.245,0l4.094,4.094a2.294,2.294,0,0,1,0,3.245l-2.025,2.025s-.844.77-.618,1.363c.551,1.44,5.018,7.22,9.2,9.252C258.606,492.733,259.007,492.4,259.446,491.96Z" transform="translate(-239.389 -470.93)" fill="none" stroke="#222178" stroke-miterlimit="10" stroke-width="1.5"/>
</svg>
