<svg xmlns="http://www.w3.org/2000/svg" width="88.181" height="55.59" viewBox="0 0 88.181 55.59"><defs><style>.a{fill:#fff;}.b,.c{fill:none;stroke:#fff;stroke-width:1.25px;}.b{stroke-linejoin:round;}.c{stroke-miterlimit:10;}</style></defs><g transform="translate(-0.375 -0.375)"><g transform="translate(1 1)"><path class="a" d="M30.948,35.69H41.36a3.478,3.478,0,0,1,3.478,3.478v2.178H27.47V39.168a3.478,3.478,0,0,1,3.478-3.478Z" transform="translate(-13.648 -17.575)"/><path class="b" d="M3.2,1H9.709a2.2,2.2,0,0,1,2.2,2.2V38.682H1V3.2A2.2,2.2,0,0,1,3.2,1Z" transform="translate(-1 -1)"/><path class="b" d="M21.91,46.51H92.722a2.2,2.2,0,0,1,2.2,2.2V60.426H21.91Z" transform="translate(-10.99 -22.745)"/><path class="b" d="M0,0H86.931V10.062H0Z" transform="translate(0 37.682)"/><path class="c" d="M0,0H6.595V6.595H0Z" transform="translate(6.673 47.745)"/><path class="c" d="M0,0H6.595V6.595H0Z" transform="translate(73.661 47.745)"/><path class="b" d="M0,0H6.595V6.595H0Z" transform="translate(6.673 47.745)"/><path class="b" d="M0,0H6.595V6.595H0Z" transform="translate(73.661 47.745)"/></g></g></svg>